<svg width="131" height="173" viewBox="0 0 131 173" fill="none" xmlns="http://www.w3.org/2000/svg">
<path d="M7.5 0C8.32843 0 8.97748 0.686473 9.22204 1.47798C9.85234 3.5179 11.7531 5 14 5C16.2469 5 18.1477 3.5179 18.778 1.47798C19.0225 0.686472 19.6716 0 20.5 0C21.3284 0 21.9775 0.686473 22.222 1.47798C22.8523 3.5179 24.7531 5 27 5C29.2469 5 31.1477 3.5179 31.778 1.47798C32.0225 0.686472 32.6716 0 33.5 0C34.3284 0 34.9775 0.686473 35.222 1.47798C35.8523 3.5179 37.7531 5 40 5C42.2469 5 44.1477 3.5179 44.778 1.47798C45.0225 0.686472 45.6716 0 46.5 0C47.3284 0 47.9775 0.686473 48.222 1.47798C48.8523 3.5179 50.7531 5 53 5C55.2469 5 57.1477 3.5179 57.778 1.47798C58.0225 0.686472 58.6716 0 59.5 0C60.3284 0 60.9775 0.686473 61.222 1.47798C61.8523 3.5179 63.7531 5 66 5C68.2469 5 70.1477 3.5179 70.778 1.47798C71.0225 0.686472 71.6716 0 72.5 0C73.3284 0 73.9775 0.686473 74.222 1.47798C74.8523 3.5179 76.7531 5 79 5C81.2469 5 83.1477 3.5179 83.778 1.47798C84.0225 0.686472 84.6716 0 85.5 0C86.3284 0 86.9775 0.686473 87.222 1.47798C87.8523 3.5179 89.7531 5 92 5C94.2469 5 96.1477 3.5179 96.778 1.47798C97.0225 0.686472 97.6716 0 98.5 0C99.3284 0 99.9775 0.686473 100.222 1.47798C100.852 3.5179 102.753 5 105 5C107.247 5 109.148 3.5179 109.778 1.47798C110.023 0.686472 110.672 0 111.5 0C112.328 0 112.977 0.686473 113.222 1.47798C113.852 3.5179 115.753 5 118 5C120.247 5 122.148 3.5179 122.778 1.47798C123.023 0.686472 123.672 0 124.5 0C125.328 0 125.977 0.686473 126.222 1.47798C126.757 3.20886 128.206 4.53814 130.006 4.90117C130.548 5.01044 131 5.44795 131 6.00053C131 6.55307 130.548 6.99057 130.006 7.09987C127.721 7.56101 126 9.58011 126 12.001C126 14.2478 127.482 16.1484 129.522 16.7788C130.314 17.0234 131 17.6725 131 18.501C131 19.3294 130.314 19.9785 129.522 20.2231C127.482 20.8536 126 22.7542 126 25.001C126 27.2478 127.482 29.1484 129.522 29.7788C130.314 30.0234 131 30.6725 131 31.501C131 32.3294 130.314 32.9785 129.522 33.2231C127.482 33.8536 126 35.7542 126 38.001C126 40.2478 127.482 42.1484 129.522 42.7788C130.314 43.0234 131 43.6725 131 44.501C131 45.3294 130.314 45.9785 129.522 46.2231C127.482 46.8536 126 48.7542 126 51.001C126 53.2478 127.482 55.1484 129.522 55.7788C130.314 56.0234 131 56.6725 131 57.501C131 58.3294 130.314 58.9785 129.522 59.2231C127.482 59.8536 126 61.7542 126 64.001C126 66.2478 127.482 68.1484 129.522 68.7788C130.314 69.0234 131 69.6725 131 70.501C131 71.3294 130.314 71.9785 129.522 72.2231C127.482 72.8536 126 74.7542 126 77.001C126 79.2478 127.482 81.1484 129.522 81.7788C130.314 82.0234 131 82.6725 131 83.501C131 84.3294 130.314 84.9785 129.522 85.2231C127.482 85.8536 126 87.7542 126 90.001C126 92.2478 127.482 94.1484 129.522 94.7788C130.314 95.0234 131 95.6725 131 96.501C131 97.3294 130.314 97.9785 129.522 98.2231C127.482 98.8536 126 100.754 126 103.001C126 105.248 127.482 107.148 129.522 107.779C130.314 108.023 131 108.673 131 109.501C131 110.329 130.314 110.979 129.522 111.223C127.482 111.854 126 113.754 126 116.001C126 118.248 127.482 120.148 129.522 120.779C130.314 121.023 131 121.673 131 122.501C131 123.329 130.314 123.979 129.522 124.223C127.482 124.854 126 126.754 126 129.001C126 131.248 127.482 133.149 129.523 133.779C130.314 134.023 131 134.672 131 135.5C131 136.329 130.314 136.977 129.522 137.222C127.482 137.852 126 139.753 126 142C126 144.675 128.101 146.859 130.743 146.993C130.886 146.997 131 147.114 131 147.257V148.48C131 149.319 130.304 149.977 129.503 150.228C127.473 150.864 126 152.76 126 155C126 157.675 128.101 159.859 130.743 159.993C130.886 159.997 131 160.114 131 160.257V161.48C131 162.319 130.304 162.977 129.503 163.228C127.473 163.864 126 165.76 126 168C126 168.57 126.096 169.118 126.272 169.628C126.465 170.19 126.465 170.81 126.272 171.372C126.255 171.421 126.238 171.472 126.222 171.522C125.978 172.314 125.328 173 124.5 173C123.672 173 123.023 172.314 122.778 171.522C122.148 169.482 120.247 168 118 168C115.753 168 113.852 169.482 113.222 171.522C112.977 172.314 112.328 173 111.5 173C110.672 173 110.023 172.314 109.778 171.522C109.148 169.482 107.247 168 105 168C102.753 168 100.852 169.482 100.222 171.522C99.9775 172.314 99.3284 173 98.5 173C97.6716 173 97.0225 172.314 96.778 171.522C96.1477 169.482 94.2469 168 92 168C89.7531 168 87.8523 169.482 87.222 171.522C86.9775 172.314 86.3284 173 85.5 173C84.6716 173 84.0225 172.314 83.778 171.522C83.1477 169.482 81.2469 168 79 168C76.7531 168 74.8523 169.482 74.222 171.522C73.9775 172.314 73.3284 173 72.5 173C71.6716 173 71.0225 172.314 70.778 171.522C70.1477 169.482 68.2469 168 66 168C63.7531 168 61.8523 169.482 61.222 171.522C60.9775 172.314 60.3284 173 59.5 173C58.6716 173 58.0225 172.314 57.778 171.522C57.1477 169.482 55.2469 168 53 168C50.7531 168 48.8523 169.482 48.222 171.522C47.9775 172.314 47.3284 173 46.5 173C45.6716 173 45.0225 172.314 44.778 171.522C44.1477 169.482 42.2469 168 40 168C37.7531 168 35.8523 169.482 35.222 171.522C34.9775 172.314 34.3284 173 33.5 173C32.6716 173 32.0225 172.314 31.778 171.522C31.1477 169.482 29.2469 168 27 168C24.7531 168 22.8523 169.482 22.222 171.522C21.9775 172.314 21.3284 173 20.5 173C19.6716 173 19.0225 172.314 18.778 171.522C18.1477 169.482 16.2469 168 14 168C11.7531 168 9.85234 169.482 9.22204 171.522C8.97748 172.314 8.32843 173 7.5 173C6.67157 173 6.02236 172.314 5.77702 171.522C5.76133 171.472 5.74487 171.422 5.72763 171.372C5.53375 170.81 5.53375 170.19 5.72763 169.628C5.90393 169.118 6 168.57 6 168C6 165.239 3.76142 163 1 163C0.479792 163 0 162.613 0 162.093V160.906C0 160.386 0.479748 160 1 160C3.76142 160 6 157.761 6 155C6 152.239 3.76142 150 1 150C0.479792 150 0 149.613 0 149.093V147.906C0 147.386 0.479748 147 1 147C3.76142 147 6 144.761 6 142C6 139.239 3.76142 137 1 137C0.479792 137 0 136.613 0 136.093V134.907C0 134.387 0.479765 134.001 1 134.001C3.76142 134.001 6 131.762 6 129.001C5.99993 126.24 3.76138 124.001 1 124.001C0.479807 124.001 0 123.614 0 123.094V121.907C0 121.387 0.479765 121.001 1 121.001C3.76142 121.001 6 118.762 6 116.001C5.99993 113.24 3.76138 111.001 1 111.001C0.479807 111.001 0 110.614 0 110.094V108.907C0 108.387 0.479765 108.001 1 108.001C3.76142 108.001 6 105.762 6 103.001C5.99993 100.24 3.76138 98.001 1 98.001C0.479807 98.001 0 97.6141 0 97.094V95.9071C0 95.3869 0.479765 95.0009 1 95.001C3.76142 95.001 6 92.7624 6 90.001C5.99993 87.2396 3.76138 85.001 1 85.001C0.479807 85.001 0 84.6141 0 84.094V82.9071C0 82.3869 0.479765 82.0009 1 82.001C3.76142 82.001 6 79.7624 6 77.001C5.99993 74.2396 3.76138 72.001 1 72.001C0.479807 72.001 0 71.6141 0 71.094V69.9071C0 69.3869 0.479765 69.0009 1 69.001C3.76142 69.001 6 66.7624 6 64.001C5.99993 61.2396 3.76138 59.001 1 59.001C0.479807 59.001 0 58.6141 0 58.094V56.9071C0 56.3869 0.479765 56.0009 1 56.001C3.76142 56.001 6 53.7624 6 51.001C5.99993 48.2396 3.76138 46.001 1 46.001C0.479807 46.001 0 45.6141 0 45.094V43.9071C0 43.3869 0.479765 43.0009 1 43.001C3.76142 43.001 6 40.7624 6 38.001C5.99993 35.2396 3.76138 33.001 1 33.001C0.479807 33.001 0 32.6141 0 32.094V30.9071C0 30.3869 0.479765 30.0009 1 30.001C3.76142 30.001 6 27.7624 6 25.001C5.99993 22.2396 3.76138 20.001 1 20.001C0.479807 20.001 0 19.6141 0 19.094V17.9071C0 17.3869 0.479765 17.0009 1 17.001C3.76142 17.001 6 14.7624 6 12.001C5.99993 9.23961 3.76138 7.00098 1 7.00098C0.479807 7.00102 0 6.61415 0 6.09396V5.90614C0 5.38589 0.479748 5 1 5C3.24691 5 5.14766 3.5179 5.77796 1.47798C6.02252 0.686472 6.67157 0 7.5 0Z" fill="#F2EBEB"/>
</svg>
