<svg width="137" height="179" viewBox="0 0 137 179" fill="none" xmlns="http://www.w3.org/2000/svg">
<rect width="137" height="179" fill="#C13735"/>
<path d="M10.5 3C11.3284 3 11.9775 3.68647 12.222 4.47798C12.8523 6.5179 14.7531 8 17 8C19.2469 8 21.1477 6.5179 21.778 4.47798C22.0225 3.68647 22.6716 3 23.5 3C24.3284 3 24.9775 3.68647 25.222 4.47798C25.8523 6.5179 27.7531 8 30 8C32.2469 8 34.1477 6.5179 34.778 4.47798C35.0225 3.68647 35.6716 3 36.5 3C37.3284 3 37.9775 3.68647 38.222 4.47798C38.8523 6.5179 40.7531 8 43 8C45.2469 8 47.1477 6.5179 47.778 4.47798C48.0225 3.68647 48.6716 3 49.5 3C50.3284 3 50.9775 3.68647 51.222 4.47798C51.8523 6.5179 53.7531 8 56 8C58.2469 8 60.1477 6.5179 60.778 4.47798C61.0225 3.68647 61.6716 3 62.5 3C63.3284 3 63.9775 3.68647 64.222 4.47798C64.8523 6.5179 66.7531 8 69 8C71.2469 8 73.1477 6.5179 73.778 4.47798C74.0225 3.68647 74.6716 3 75.5 3C76.3284 3 76.9775 3.68647 77.222 4.47798C77.8523 6.5179 79.7531 8 82 8C84.2469 8 86.1477 6.5179 86.778 4.47798C87.0225 3.68647 87.6716 3 88.5 3C89.3284 3 89.9775 3.68647 90.222 4.47798C90.8523 6.5179 92.7531 8 95 8C97.2469 8 99.1477 6.5179 99.778 4.47798C100.023 3.68647 100.672 3 101.5 3C102.328 3 102.977 3.68647 103.222 4.47798C103.852 6.5179 105.753 8 108 8C110.247 8 112.148 6.5179 112.778 4.47798C113.023 3.68647 113.672 3 114.5 3C115.328 3 115.977 3.68647 116.222 4.47798C116.852 6.5179 118.753 8 121 8C123.247 8 125.148 6.5179 125.778 4.47798C126.023 3.68647 126.672 3 127.5 3C128.328 3 128.977 3.68647 129.222 4.47798C129.757 6.20886 131.206 7.53814 133.006 7.90117C133.548 8.01044 134 8.44795 134 9.00053C134 9.55307 133.548 9.99057 133.006 10.0999C130.721 10.561 129 12.5801 129 15.001C129 17.2478 130.482 19.1484 132.522 19.7788C133.314 20.0234 134 20.6725 134 21.501C134 22.3294 133.314 22.9785 132.522 23.2231C130.482 23.8536 129 25.7542 129 28.001C129 30.2478 130.482 32.1484 132.522 32.7788C133.314 33.0234 134 33.6725 134 34.501C134 35.3294 133.314 35.9785 132.522 36.2231C130.482 36.8536 129 38.7542 129 41.001C129 43.2478 130.482 45.1484 132.522 45.7788C133.314 46.0234 134 46.6725 134 47.501C134 48.3294 133.314 48.9785 132.522 49.2231C130.482 49.8536 129 51.7542 129 54.001C129 56.2478 130.482 58.1484 132.522 58.7788C133.314 59.0234 134 59.6725 134 60.501C134 61.3294 133.314 61.9785 132.522 62.2231C130.482 62.8536 129 64.7542 129 67.001C129 69.2478 130.482 71.1484 132.522 71.7788C133.314 72.0234 134 72.6725 134 73.501C134 74.3294 133.314 74.9785 132.522 75.2231C130.482 75.8536 129 77.7542 129 80.001C129 82.2478 130.482 84.1484 132.522 84.7788C133.314 85.0234 134 85.6725 134 86.501C134 87.3294 133.314 87.9785 132.522 88.2231C130.482 88.8536 129 90.7542 129 93.001C129 95.2478 130.482 97.1484 132.522 97.7788C133.314 98.0234 134 98.6725 134 99.501C134 100.329 133.314 100.979 132.522 101.223C130.482 101.854 129 103.754 129 106.001C129 108.248 130.482 110.148 132.522 110.779C133.314 111.023 134 111.673 134 112.501C134 113.329 133.314 113.979 132.522 114.223C130.482 114.854 129 116.754 129 119.001C129 121.248 130.482 123.148 132.522 123.779C133.314 124.023 134 124.673 134 125.501C134 126.329 133.314 126.979 132.522 127.223C130.482 127.854 129 129.754 129 132.001C129 134.248 130.482 136.149 132.523 136.779C133.314 137.023 134 137.672 134 138.5C134 139.329 133.314 139.977 132.522 140.222C130.482 140.852 129 142.753 129 145C129 147.675 131.101 149.859 133.743 149.993C133.886 149.997 134 150.114 134 150.257V151.48C134 152.319 133.304 152.977 132.503 153.228C130.473 153.864 129 155.76 129 158C129 160.675 131.101 162.859 133.743 162.993C133.886 162.997 134 163.114 134 163.257V164.48C134 165.319 133.304 165.977 132.503 166.228C130.473 166.864 129 168.76 129 171C129 171.57 129.096 172.118 129.272 172.628C129.465 173.19 129.465 173.81 129.272 174.372C129.255 174.421 129.238 174.472 129.222 174.522C128.978 175.314 128.328 176 127.5 176C126.672 176 126.023 175.314 125.778 174.522C125.148 172.482 123.247 171 121 171C118.753 171 116.852 172.482 116.222 174.522C115.977 175.314 115.328 176 114.5 176C113.672 176 113.023 175.314 112.778 174.522C112.148 172.482 110.247 171 108 171C105.753 171 103.852 172.482 103.222 174.522C102.977 175.314 102.328 176 101.5 176C100.672 176 100.023 175.314 99.778 174.522C99.1477 172.482 97.2469 171 95 171C92.7531 171 90.8523 172.482 90.222 174.522C89.9775 175.314 89.3284 176 88.5 176C87.6716 176 87.0225 175.314 86.778 174.522C86.1477 172.482 84.2469 171 82 171C79.7531 171 77.8523 172.482 77.222 174.522C76.9775 175.314 76.3284 176 75.5 176C74.6716 176 74.0225 175.314 73.778 174.522C73.1477 172.482 71.2469 171 69 171C66.7531 171 64.8523 172.482 64.222 174.522C63.9775 175.314 63.3284 176 62.5 176C61.6716 176 61.0225 175.314 60.778 174.522C60.1477 172.482 58.2469 171 56 171C53.7531 171 51.8523 172.482 51.222 174.522C50.9775 175.314 50.3284 176 49.5 176C48.6716 176 48.0225 175.314 47.778 174.522C47.1477 172.482 45.2469 171 43 171C40.7531 171 38.8523 172.482 38.222 174.522C37.9775 175.314 37.3284 176 36.5 176C35.6716 176 35.0225 175.314 34.778 174.522C34.1477 172.482 32.2469 171 30 171C27.7531 171 25.8523 172.482 25.222 174.522C24.9775 175.314 24.3284 176 23.5 176C22.6716 176 22.0225 175.314 21.778 174.522C21.1477 172.482 19.2469 171 17 171C14.7531 171 12.8523 172.482 12.222 174.522C11.9775 175.314 11.3284 176 10.5 176C9.67157 176 9.02236 175.314 8.77702 174.522C8.76133 174.472 8.74487 174.422 8.72763 174.372C8.53375 173.81 8.53375 173.19 8.72763 172.628C8.90393 172.118 9 171.57 9 171C9 168.239 6.76142 166 4 166C3.47979 166 3 165.613 3 165.093V163.906C3 163.386 3.47975 163 4 163C6.76142 163 9 160.761 9 158C9 155.239 6.76142 153 4 153C3.47979 153 3 152.613 3 152.093V150.906C3 150.386 3.47975 150 4 150C6.76142 150 9 147.761 9 145C9 142.239 6.76142 140 4 140C3.47979 140 3 139.613 3 139.093V137.907C3 137.387 3.47977 137.001 4 137.001C6.76142 137.001 9 134.762 9 132.001C8.99993 129.24 6.76138 127.001 4 127.001C3.47981 127.001 3 126.614 3 126.094V124.907C3 124.387 3.47977 124.001 4 124.001C6.76142 124.001 9 121.762 9 119.001C8.99993 116.24 6.76138 114.001 4 114.001C3.47981 114.001 3 113.614 3 113.094V111.907C3 111.387 3.47977 111.001 4 111.001C6.76142 111.001 9 108.762 9 106.001C8.99993 103.24 6.76138 101.001 4 101.001C3.47981 101.001 3 100.614 3 100.094V98.9071C3 98.3869 3.47977 98.0009 4 98.001C6.76142 98.001 9 95.7624 9 93.001C8.99993 90.2396 6.76138 88.001 4 88.001C3.47981 88.001 3 87.6141 3 87.094V85.9071C3 85.3869 3.47977 85.0009 4 85.001C6.76142 85.001 9 82.7624 9 80.001C8.99993 77.2396 6.76138 75.001 4 75.001C3.47981 75.001 3 74.6141 3 74.094V72.9071C3 72.3869 3.47976 72.0009 4 72.001C6.76142 72.001 9 69.7624 9 67.001C8.99993 64.2396 6.76138 62.001 4 62.001C3.47981 62.001 3 61.6141 3 61.094V59.9071C3 59.3869 3.47976 59.0009 4 59.001C6.76142 59.001 9 56.7624 9 54.001C8.99993 51.2396 6.76138 49.001 4 49.001C3.47981 49.001 3 48.6141 3 48.094V46.9071C3 46.3869 3.47976 46.0009 4 46.001C6.76142 46.001 9 43.7624 9 41.001C8.99993 38.2396 6.76138 36.001 4 36.001C3.47981 36.001 3 35.6141 3 35.094V33.9071C3 33.3869 3.47976 33.0009 4 33.001C6.76142 33.001 9 30.7624 9 28.001C8.99993 25.2396 6.76138 23.001 4 23.001C3.47981 23.001 3 22.6141 3 22.094V20.9071C3 20.3869 3.47976 20.0009 4 20.001C6.76142 20.001 9 17.7624 9 15.001C8.99993 12.2396 6.76138 10.001 4 10.001C3.47981 10.001 3 9.61415 3 9.09396V8.90614C3 8.38589 3.47975 8 4 8C6.24691 8 8.14766 6.5179 8.77796 4.47798C9.02252 3.68647 9.67157 3 10.5 3Z" fill="#F2EBEB"/>
</svg>
